<svg width="259" height="54" viewBox="0 0 259 54" fill="none" xmlns="http://www.w3.org/2000/svg">
<g clip-path="url(#clip0_3745_171)">
<path d="M116.385 52.3429L108.72 28.6179L100.909 36.3559L98.1348 52.3429H84.9948L94.1928 0.00195312H107.333L103.829 20.2229L123.539 0.00195312H139.964L119.962 20.4419L130.62 52.3429H116.385Z" fill="white"/>
<path d="M81.5324 33.9469H59.9974L56.7854 52.3429H43.7184L52.9164 0.00195312H88.3944L86.2774 11.9009H63.8664L62.1144 22.0479H83.6494L81.5324 33.9469Z" fill="white"/>
<path d="M18.2699 53.4379C3.88893 53.4379 -1.73207 45.9189 0.457933 32.5599V32.4139H14.5469L14.4739 32.9979C13.5979 38.4729 14.6929 41.1009 18.9999 41.1009C23.3799 41.1009 24.8399 38.9109 26.1539 31.5379L31.7019 0.00195312H45.5719L40.0969 31.3189C37.2499 47.1599 32.2129 53.4379 18.2699 53.4379Z" fill="white"/>
<path d="M258.691 52.0735H232.995V45.9415H242.704V13.2375H235.258V8.27353C240.66 7.98153 242.85 5.64553 243.799 0.170532H248.982V45.9415H258.691V52.0735Z" fill="white"/>
<path d="M228.704 5.93753H215.126V52.0735H208.702V5.93753H195.635V0.170532H228.704V5.93753Z" fill="white"/>
<path d="M164.747 0H163.696V53.44H164.747V0Z" fill="white"/>
</g>
<defs>
<clipPath id="clip0_3745_171">
<rect width="259" height="54" fill="white"/>
</clipPath>
</defs>
</svg>
