<svg width="507" height="106" viewBox="0 0 507 106" fill="none" xmlns="http://www.w3.org/2000/svg">
<path d="M62.219 0.560059L51.329 62.4501C48.749 76.9201 45.879 81.2201 37.289 81.2201C28.699 81.2201 26.689 76.0601 28.409 65.3201L28.559 64.1801H0.899033V64.4701C-3.40097 90.6801 7.63903 105.44 35.849 105.44C64.059 105.44 73.089 93.1201 78.679 62.0401L89.429 0.560059H62.219Z" fill="white"/>
<path d="M125.369 23.9101H169.349L173.499 0.560059H103.889L85.839 103.27H111.479L117.779 67.1701H160.049L164.199 43.8201H121.929L125.369 23.9101Z" fill="white"/>
<path d="M243.109 0.560059L204.429 40.2401L211.309 0.560059H185.529L167.479 103.27H193.259L198.699 71.9001L214.029 56.7201L229.079 103.27H257.009L236.099 40.6701L275.349 0.560059H243.109Z" fill="white"/>
<path d="M303.429 0.560059H300.729V103.27H303.429V0.560059Z" fill="white"/>
<path d="M477.587 56.5409H471.726V61.4592H481.204V60.1404C481.204 58.0884 479.648 56.5409 477.587 56.5409Z" fill="white"/>
<path d="M448.954 36.8938V57.4793H432.461L428.506 62.4071H448.954V99.6631C448.954 101.72 450.512 103.27 452.577 103.27H453.905V30.7364L448.954 36.8938Z" fill="white"/>
<path d="M415.706 6.33808C415.706 4.27836 414.15 2.73026 412.081 2.73026H340.625C338.559 2.73026 337 4.27836 337 6.33808V7.65881H415.706V6.33808Z" fill="white"/>
<path d="M387.647 20.7097H337V22.0323C337 23.0612 337.391 23.9641 338.037 24.6074C338.685 25.2536 339.589 25.6401 340.624 25.6401H363.707V99.6649C363.707 101.72 365.268 103.27 367.332 103.27H368.659V25.6401H384.048V103.27H384.831C386.897 103.27 388.997 101.72 388.997 99.6649V25.6401H412.081C413.375 25.6401 414.468 25.0338 415.104 24.0788C415.487 23.5065 415.706 22.8045 415.706 22.0323V20.7097H387.647Z" fill="white"/>
<path d="M405.31 62.5471L454.239 3.45699L452.709 2.95011C450.772 2.32102 448.129 3.08655 446.833 4.64887L405.174 54.9073C403.88 56.4713 403.578 59.2263 404.509 61.0293L405.31 62.5471Z" fill="white"/>
<mask id="mask0_3860_220" style="mask-type:luminance" maskUnits="userSpaceOnUse" x="412" y="74" width="37" height="7">
<path d="M448.955 74.6678H418.782L412.631 76.7844C413.604 78.8062 415.068 80.3906 417.134 80.3906H448.955V74.6678Z" fill="white"/>
</mask>
<g mask="url(#mask0_3860_220)">
<path d="M448.955 74.6678H418.782L412.631 76.7844C413.604 78.8062 415.068 80.3906 417.134 80.3906H448.955V74.6678Z" fill="white"/>
</g>
<mask id="mask1_3860_220" style="mask-type:luminance" maskUnits="userSpaceOnUse" x="466" y="8" width="16" height="96">
<path d="M471.972 74.6678V12.449C471.972 10.3931 470.257 8.73318 468.348 8.03113L466.601 14.829V103.27H468.348C470.415 103.27 471.972 101.72 471.972 99.6649V80.3895H477.847C479.912 80.3895 481.469 78.8402 481.469 76.7844V74.6678H471.972Z" fill="white"/>
</mask>
<g mask="url(#mask1_3860_220)">
<path d="M471.972 74.6678V12.449C471.972 10.3931 470.257 8.73318 468.348 8.03113L466.601 14.829V103.27H468.348C470.415 103.27 471.972 101.72 471.972 99.6649V80.3895H477.847C479.912 80.3895 481.469 78.8402 481.469 76.7844V74.6678H471.972Z" fill="white"/>
</g>
<mask id="mask2_3860_220" style="mask-type:luminance" maskUnits="userSpaceOnUse" x="411" y="7" width="58" height="72">
<path d="M468.348 8.03028L465.873 7.098L411.348 74.2494L412.66 76.8397C413.59 78.6423 415.392 78.8263 416.668 77.2449L466.6 14.9304L468.348 8.03028Z" fill="white"/>
</mask>
<g mask="url(#mask2_3860_220)">
<path d="M468.348 8.03028L465.873 7.098L411.348 74.2494L412.66 76.8397C413.59 78.6423 415.392 78.8263 416.668 77.2449L466.6 14.9304L468.348 8.03028Z" fill="white"/>
</g>
</svg>
