<svg width="462" height="105" viewBox="0 0 462 105" fill="none" xmlns="http://www.w3.org/2000/svg">
<g clip-path="url(#clip0_3362_57)">
<path d="M62.22 0L51.33 61.89C48.75 76.36 45.88 80.66 37.29 80.66C28.7 80.66 26.69 75.5 28.41 64.76L28.56 63.62H0.90001V63.91C-3.39999 90.12 7.64001 104.88 35.85 104.88C64.06 104.88 73.09 92.56 78.68 61.48L89.43 0H62.22Z" fill="white"/>
<path d="M125.37 23.35H169.35L173.5 0H103.89L85.84 102.71H111.48L117.78 66.61H160.05L164.2 43.26H121.93L125.37 23.35Z" fill="white"/>
<path d="M243.11 0L204.43 39.68L211.31 0H185.53L167.48 102.71H193.26L198.7 71.34L214.03 56.16L229.08 102.71H257.01L236.1 40.11L275.35 0H243.11Z" fill="white"/>
<path d="M331.05 18.9201H360.17V102.71H368.28V10.8101H331.05V18.9201Z" fill="white"/>
<path d="M450.21 30.9401C450.21 19.8201 441.2 10.8101 430.08 10.8101C418.96 10.8101 409.95 19.8201 409.95 30.9401C409.95 42.0601 418.96 51.0701 430.08 51.0701C441.2 51.0701 450.21 42.0601 450.21 30.9401ZM418.05 30.9401C418.05 24.3001 423.44 18.9101 430.08 18.9101C436.72 18.9101 442.11 24.3001 442.11 30.9401C442.11 37.5801 436.72 42.9701 430.08 42.9701C423.44 42.9701 418.05 37.5801 418.05 30.9401Z" fill="white"/>
<path d="M461.02 30.94C461.02 13.85 447.17 0 430.08 0H331.05V8.11H409.19C408.27 8.96 407.39 9.86 406.58 10.81H370.98V102.71H379.09V18.92H401.55C399.99 22.62 399.13 26.68 399.13 30.94C399.13 39.29 402.44 46.86 407.82 52.43C402.44 58 399.13 65.57 399.13 73.92C399.13 91.01 412.98 104.87 430.08 104.87C447.18 104.87 461.03 91.02 461.03 73.92C461.03 65.57 457.72 58 452.34 52.43C457.72 46.86 461.03 39.29 461.03 30.94M452.91 73.92C452.91 86.53 442.69 96.75 430.08 96.75C417.47 96.75 407.25 86.53 407.25 73.92C407.25 64 413.58 55.59 422.42 52.43C413.59 49.28 407.25 40.86 407.25 30.94C407.25 18.33 417.47 8.11 430.08 8.11C442.69 8.11 452.91 18.33 452.91 30.94C452.91 40.86 446.58 49.27 437.74 52.43C446.57 55.58 452.91 64 452.91 73.92Z" fill="white"/>
<path d="M430.08 53.79C418.96 53.79 409.95 62.8 409.95 73.92C409.95 85.04 418.96 94.05 430.08 94.05C441.2 94.05 450.21 85.04 450.21 73.92C450.21 62.8 441.2 53.79 430.08 53.79ZM430.08 85.95C423.44 85.95 418.05 80.56 418.05 73.92C418.05 67.28 423.44 61.89 430.08 61.89C436.72 61.89 442.11 67.28 442.11 73.92C442.11 80.56 436.72 85.95 430.08 85.95Z" fill="white"/>
<path d="M303.43 0H300.73V102.71H303.43V0Z" fill="white"/>
</g>
<defs>
<clipPath id="clip0_3362_57">
<rect width="461.02" height="104.86" fill="white"/>
</clipPath>
</defs>
</svg>
