<svg width="267" height="54" viewBox="0 0 267 54" fill="none" xmlns="http://www.w3.org/2000/svg">
<path d="M116.385 52.343L108.72 28.618L100.909 36.356L98.1348 52.343H84.9948L94.1928 0.00195312H107.333L103.829 20.2229L123.539 0.00195312H139.964L119.962 20.442L130.62 52.343H116.385Z" fill="white"/>
<path d="M81.5324 33.947H59.9974L56.7854 52.343H43.7184L52.9164 0.00195312H88.3944L86.2774 11.901H63.8664L62.1144 22.048H83.6494L81.5324 33.947Z" fill="white"/>
<path d="M18.2699 53.438C3.88893 53.438 -1.73207 45.919 0.457932 32.56V32.414H14.5469L14.4739 32.998C13.5979 38.473 14.6929 41.101 18.9999 41.101C23.3799 41.101 24.8399 38.911 26.1539 31.538L31.7019 0.00195312H45.5719L40.0969 31.319C37.2499 47.16 32.2129 53.438 18.2699 53.438Z" fill="white"/>
<path d="M246.354 52.0735H238.835C242.777 34.2615 252.048 16.6685 259.056 6.30253H232.484V0.170532H266.356V5.13453C258.618 16.6685 249.493 35.3565 246.354 52.0735Z" fill="white"/>
<path d="M228.704 5.93753H215.126V52.0735H208.702V5.93753H195.635V0.170532H228.704V5.93753Z" fill="white"/>
<path d="M164.747 0H163.696V53.44H164.747V0Z" fill="white"/>
</svg>
