<svg width="472" height="106" viewBox="0 0 472 106" fill="none" xmlns="http://www.w3.org/2000/svg">
<path d="M62.71 0.359985L51.82 62.25C49.24 76.72 46.37 81.02 37.78 81.02C29.19 81.02 27.18 75.86 28.9 65.12L29.05 63.98H1.39V64.27C-2.91 90.48 8.13 105.24 36.34 105.24C64.55 105.24 73.58 92.92 79.17 61.84L89.92 0.359985H62.71Z" fill="white"/>
<path d="M125.86 23.71H169.84L173.99 0.359985H104.38L86.33 103.07H111.97L118.27 66.97H160.54L164.69 43.62H122.42L125.86 23.71Z" fill="white"/>
<path d="M243.6 0.359985L204.92 40.04L211.8 0.359985H186.02L167.97 103.07H193.75L199.19 71.7L214.52 56.52L229.57 103.07H257.5L236.59 40.47L275.84 0.359985H243.6Z" fill="white"/>
<g clip-path="url(#clip0_3304_75)">
<path d="M468.681 0.294983V21.789H426.926L425.908 37.1419C442.677 29.4586 463.168 34.9174 469.156 53.5592C471.763 61.6655 471.709 77.7008 468.545 85.6433C456.053 117.018 400.312 109.444 402.484 72.9789H423.368C424.794 72.9789 442.976 89.4645 445.977 90.256C448.028 90.8019 449.1 89.1642 450.336 87.8132C440.98 79.0791 439.106 68.5709 441.455 56.3568C442.311 51.9352 445.624 50.5978 439.147 48.851L422.35 66.8241H405.037L403.516 65.2956V0.294983H468.694H468.681Z" fill="white"/>
<path d="M400.448 0.294983V22.8125H373.969V104.695H347.49V22.8125H322.03V0.294983H400.448Z" fill="white"/>
</g>
<path d="M303.92 0.359985H301.22V103.07H303.92V0.359985Z" fill="white"/>
<defs>
<clipPath id="clip0_3304_75">
<rect width="149" height="105" fill="white" transform="translate(322.03 0.294983)"/>
</clipPath>
</defs>
</svg>
